<mxfile host="www.draw.io" modified="2019-12-26T06:57:46.133Z" agent="Mozilla/5.0 (Windows NT 6.1; Win64; x64) AppleWebKit/537.36 (KHTML, like Gecko) Chrome/79.0.3945.88 Safari/537.36" etag="BClvCPOHLTm2tKqPCmKF" version="12.4.3" type="github" pages="1">
  <diagram id="F2t0CvAlyX9msotLTjHV" name="第 1 页">
    <mxGraphModel dx="1038" dy="572" grid="1" gridSize="10" guides="1" tooltips="1" connect="1" arrows="1" fold="1" page="1" pageScale="1" pageWidth="2339" pageHeight="3300" math="0" shadow="0">
      <root>
        <mxCell id="0"/>
        <mxCell id="1" parent="0"/>
        <mxCell id="jyvKhXXE0eLRTPu1VaxT-2" value="名称" style="fillColor=none;strokeColor=none;html=1;fontSize=11;fontStyle=0;align=center;fontColor=#596780;fontStyle=1;fontSize=11;labelPosition=center;verticalLabelPosition=middle;verticalAlign=middle;" parent="1" vertex="1">
          <mxGeometry x="56.5" y="106" width="60" height="20" as="geometry"/>
        </mxCell>
        <mxCell id="jyvKhXXE0eLRTPu1VaxT-3" value="FGStyle_XXX_XXX" style="rounded=1;arcSize=9;fillColor=#F7F8F9;align=left;spacingLeft=5;strokeColor=#DEE1E6;html=1;strokeWidth=2;fontSize=12" parent="1" vertex="1">
          <mxGeometry x="156.5" y="101" width="125" height="30" as="geometry"/>
        </mxCell>
        <mxCell id="jyvKhXXE0eLRTPu1VaxT-10" value="描述" style="fillColor=none;strokeColor=none;html=1;fontSize=11;fontStyle=0;align=center;fontColor=#596780;fontStyle=1;fontSize=11;labelPosition=center;verticalLabelPosition=middle;verticalAlign=middle;" parent="1" vertex="1">
          <mxGeometry x="331.5" y="106" width="60" height="20" as="geometry"/>
        </mxCell>
        <mxCell id="jyvKhXXE0eLRTPu1VaxT-11" value="符号键盘-副丝印" style="rounded=1;arcSize=9;fillColor=#F7F8F9;align=left;spacingLeft=5;strokeColor=#DEE1E6;html=1;strokeWidth=2;fontSize=12" parent="1" vertex="1">
          <mxGeometry x="431.5" y="101" width="125" height="30" as="geometry"/>
        </mxCell>
        <mxCell id="jyvKhXXE0eLRTPu1VaxT-16" value="保存" style="rounded=1;fillColor=#0057D8;strokeColor=none;fontColor=#ffffff;align=center;verticalAlign=middle;fontStyle=0;fontSize=14;html=1;shadow=0;dashed=0" parent="1" vertex="1">
          <mxGeometry x="681.5" y="101" width="60" height="33" as="geometry"/>
        </mxCell>
        <mxCell id="jyvKhXXE0eLRTPu1VaxT-18" value="" style="dashed=0;html=1;rounded=1;strokeColor=#6554C0;fontSize=12;align=center;fontStyle=1;strokeWidth=2;fontColor=#6554C0" parent="1" vertex="1">
          <mxGeometry x="81" y="660" width="680" height="110" as="geometry"/>
        </mxCell>
        <mxCell id="jyvKhXXE0eLRTPu1VaxT-24" value="符号键盘-副丝印" style="rounded=1;fillColor=#F1F2F4;strokeColor=none;html=1;fontColor=#596780;align=center;verticalAlign=middle;fontStyle=0;fontSize=12" parent="1" vertex="1">
          <mxGeometry x="111" y="690" width="86" height="33" as="geometry"/>
        </mxCell>
        <mxCell id="jyvKhXXE0eLRTPu1VaxT-25" value="xxx" style="rounded=1;fillColor=#F1F2F4;strokeColor=none;html=1;fontColor=#596780;align=center;verticalAlign=middle;fontStyle=0;fontSize=12" parent="1" vertex="1">
          <mxGeometry x="481" y="690" width="86" height="33" as="geometry"/>
        </mxCell>
        <mxCell id="jyvKhXXE0eLRTPu1VaxT-26" value="xxx" style="rounded=1;fillColor=#F1F2F4;strokeColor=none;html=1;fontColor=#596780;align=center;verticalAlign=middle;fontStyle=0;fontSize=12" parent="1" vertex="1">
          <mxGeometry x="361" y="690" width="86" height="33" as="geometry"/>
        </mxCell>
        <mxCell id="jyvKhXXE0eLRTPu1VaxT-27" value="xxx" style="rounded=1;fillColor=#F1F2F4;strokeColor=none;html=1;fontColor=#596780;align=center;verticalAlign=middle;fontStyle=0;fontSize=12" parent="1" vertex="1">
          <mxGeometry x="231" y="690" width="86" height="33" as="geometry"/>
        </mxCell>
        <mxCell id="jyvKhXXE0eLRTPu1VaxT-31" value="背景图矩形" style="fillColor=none;strokeColor=none;html=1;fontSize=11;fontStyle=0;align=left;fontColor=#596780;fontStyle=1;fontSize=11" parent="1" vertex="1">
          <mxGeometry x="86" y="211" width="60" height="20" as="geometry"/>
        </mxCell>
        <mxCell id="jyvKhXXE0eLRTPu1VaxT-32" value="45" style="rounded=1;arcSize=9;fillColor=#F7F8F9;align=left;spacingLeft=5;strokeColor=#DEE1E6;html=1;strokeWidth=2;fontSize=12" parent="1" vertex="1">
          <mxGeometry x="186" y="212" width="62" height="20" as="geometry"/>
        </mxCell>
        <mxCell id="jyvKhXXE0eLRTPu1VaxT-37" value="45" style="rounded=1;arcSize=9;fillColor=#F7F8F9;align=left;spacingLeft=5;strokeColor=#DEE1E6;html=1;strokeWidth=2;fontSize=12" parent="1" vertex="1">
          <mxGeometry x="267" y="212" width="62" height="20" as="geometry"/>
        </mxCell>
        <mxCell id="jyvKhXXE0eLRTPu1VaxT-40" value="45" style="rounded=1;arcSize=9;fillColor=#F7F8F9;align=left;spacingLeft=5;strokeColor=#DEE1E6;html=1;strokeWidth=2;fontSize=12" parent="1" vertex="1">
          <mxGeometry x="344.5" y="212" width="62" height="20" as="geometry"/>
        </mxCell>
        <mxCell id="jyvKhXXE0eLRTPu1VaxT-41" value="45" style="rounded=1;arcSize=9;fillColor=#F7F8F9;align=left;spacingLeft=5;strokeColor=#DEE1E6;html=1;strokeWidth=2;fontSize=12" parent="1" vertex="1">
          <mxGeometry x="425.5" y="212" width="62" height="20" as="geometry"/>
        </mxCell>
        <mxCell id="jyvKhXXE0eLRTPu1VaxT-42" value="副ICON矩形" style="fillColor=none;strokeColor=none;html=1;fontSize=11;fontStyle=0;align=left;fontColor=#596780;fontStyle=1;fontSize=11" parent="1" vertex="1">
          <mxGeometry x="88.5" y="315" width="60" height="20" as="geometry"/>
        </mxCell>
        <mxCell id="jyvKhXXE0eLRTPu1VaxT-43" value="45" style="rounded=1;arcSize=9;fillColor=#F7F8F9;align=left;spacingLeft=5;strokeColor=#DEE1E6;html=1;strokeWidth=2;fontSize=12" parent="1" vertex="1">
          <mxGeometry x="188.5" y="310" width="62" height="20" as="geometry"/>
        </mxCell>
        <mxCell id="jyvKhXXE0eLRTPu1VaxT-44" value="45" style="rounded=1;arcSize=9;fillColor=#F7F8F9;align=left;spacingLeft=5;strokeColor=#DEE1E6;html=1;strokeWidth=2;fontSize=12" parent="1" vertex="1">
          <mxGeometry x="269.5" y="310" width="62" height="20" as="geometry"/>
        </mxCell>
        <mxCell id="jyvKhXXE0eLRTPu1VaxT-45" value="45" style="rounded=1;arcSize=9;fillColor=#F7F8F9;align=left;spacingLeft=5;strokeColor=#DEE1E6;html=1;strokeWidth=2;fontSize=12" parent="1" vertex="1">
          <mxGeometry x="347" y="310" width="62" height="20" as="geometry"/>
        </mxCell>
        <mxCell id="jyvKhXXE0eLRTPu1VaxT-46" value="45" style="rounded=1;arcSize=9;fillColor=#F7F8F9;align=left;spacingLeft=5;strokeColor=#DEE1E6;html=1;strokeWidth=2;fontSize=12" parent="1" vertex="1">
          <mxGeometry x="428" y="310" width="62" height="20" as="geometry"/>
        </mxCell>
        <mxCell id="jyvKhXXE0eLRTPu1VaxT-47" value="主丝印位置" style="fillColor=none;strokeColor=none;html=1;fontSize=11;fontStyle=0;align=left;fontColor=#596780;fontStyle=1;fontSize=11" parent="1" vertex="1">
          <mxGeometry x="89" y="365" width="60" height="20" as="geometry"/>
        </mxCell>
        <mxCell id="jyvKhXXE0eLRTPu1VaxT-48" value="45" style="rounded=1;arcSize=9;fillColor=#F7F8F9;align=left;spacingLeft=5;strokeColor=#DEE1E6;html=1;strokeWidth=2;fontSize=12" parent="1" vertex="1">
          <mxGeometry x="189" y="360" width="62" height="20" as="geometry"/>
        </mxCell>
        <mxCell id="jyvKhXXE0eLRTPu1VaxT-49" value="45" style="rounded=1;arcSize=9;fillColor=#F7F8F9;align=left;spacingLeft=5;strokeColor=#DEE1E6;html=1;strokeWidth=2;fontSize=12" parent="1" vertex="1">
          <mxGeometry x="270" y="360" width="62" height="20" as="geometry"/>
        </mxCell>
        <mxCell id="jyvKhXXE0eLRTPu1VaxT-50" value="45" style="rounded=1;arcSize=9;fillColor=#F7F8F9;align=left;spacingLeft=5;strokeColor=#DEE1E6;html=1;strokeWidth=2;fontSize=12" parent="1" vertex="1">
          <mxGeometry x="347.5" y="360" width="62" height="20" as="geometry"/>
        </mxCell>
        <mxCell id="jyvKhXXE0eLRTPu1VaxT-51" value="45" style="rounded=1;arcSize=9;fillColor=#F7F8F9;align=left;spacingLeft=5;strokeColor=#DEE1E6;html=1;strokeWidth=2;fontSize=12" parent="1" vertex="1">
          <mxGeometry x="428.5" y="360" width="62" height="20" as="geometry"/>
        </mxCell>
        <mxCell id="jyvKhXXE0eLRTPu1VaxT-52" value="主丝印-字体风格" style="fillColor=none;strokeColor=none;html=1;fontSize=11;fontStyle=0;align=left;fontColor=#596780;fontStyle=1;fontSize=11" parent="1" vertex="1">
          <mxGeometry x="69" y="396.5" width="93" height="20" as="geometry"/>
        </mxCell>
        <mxCell id="jyvKhXXE0eLRTPu1VaxT-55" value="中主丝印位置" style="fillColor=none;strokeColor=none;html=1;fontSize=11;fontStyle=0;align=left;fontColor=#596780;fontStyle=1;fontSize=11" parent="1" vertex="1">
          <mxGeometry x="83.5" y="495" width="60" height="20" as="geometry"/>
        </mxCell>
        <mxCell id="jyvKhXXE0eLRTPu1VaxT-56" value="45" style="rounded=1;arcSize=9;fillColor=#F7F8F9;align=left;spacingLeft=5;strokeColor=#DEE1E6;html=1;strokeWidth=2;fontSize=12" parent="1" vertex="1">
          <mxGeometry x="183.5" y="490" width="62" height="20" as="geometry"/>
        </mxCell>
        <mxCell id="jyvKhXXE0eLRTPu1VaxT-57" value="45" style="rounded=1;arcSize=9;fillColor=#F7F8F9;align=left;spacingLeft=5;strokeColor=#DEE1E6;html=1;strokeWidth=2;fontSize=12" parent="1" vertex="1">
          <mxGeometry x="264.5" y="490" width="62" height="20" as="geometry"/>
        </mxCell>
        <mxCell id="jyvKhXXE0eLRTPu1VaxT-58" value="45" style="rounded=1;arcSize=9;fillColor=#F7F8F9;align=left;spacingLeft=5;strokeColor=#DEE1E6;html=1;strokeWidth=2;fontSize=12" parent="1" vertex="1">
          <mxGeometry x="342" y="490" width="62" height="20" as="geometry"/>
        </mxCell>
        <mxCell id="jyvKhXXE0eLRTPu1VaxT-59" value="45" style="rounded=1;arcSize=9;fillColor=#F7F8F9;align=left;spacingLeft=5;strokeColor=#DEE1E6;html=1;strokeWidth=2;fontSize=12" parent="1" vertex="1">
          <mxGeometry x="423" y="490" width="62" height="20" as="geometry"/>
        </mxCell>
        <mxCell id="jyvKhXXE0eLRTPu1VaxT-60" value="中主丝印-字体风格" style="fillColor=none;strokeColor=none;html=1;fontSize=11;fontStyle=0;align=left;fontColor=#596780;fontStyle=1;fontSize=11" parent="1" vertex="1">
          <mxGeometry x="64" y="536.5" width="93" height="20" as="geometry"/>
        </mxCell>
        <mxCell id="jyvKhXXE0eLRTPu1VaxT-61" value="字体风格中选择" style="rounded=1;fillColor=#F1F2F4;strokeColor=none;html=1;fontColor=#596780;align=left;fontSize=12;spacingLeft=10" parent="1" vertex="1">
          <mxGeometry x="183.5" y="530" width="142" height="30" as="geometry"/>
        </mxCell>
        <mxCell id="jyvKhXXE0eLRTPu1VaxT-62" value="" style="shape=triangle;direction=south;fillColor=#596780;strokeColor=none;html=1" parent="jyvKhXXE0eLRTPu1VaxT-61" vertex="1">
          <mxGeometry x="1" y="0.5" width="12" height="6" relative="1" as="geometry">
            <mxPoint x="-20" y="-3" as="offset"/>
          </mxGeometry>
        </mxCell>
        <mxCell id="jyvKhXXE0eLRTPu1VaxT-63" value="副丝印位置" style="fillColor=none;strokeColor=none;html=1;fontSize=11;fontStyle=0;align=left;fontColor=#596780;fontStyle=1;fontSize=11" parent="1" vertex="1">
          <mxGeometry x="83.5" y="585" width="60" height="20" as="geometry"/>
        </mxCell>
        <mxCell id="jyvKhXXE0eLRTPu1VaxT-64" value="45" style="rounded=1;arcSize=9;fillColor=#F7F8F9;align=left;spacingLeft=5;strokeColor=#DEE1E6;html=1;strokeWidth=2;fontSize=12" parent="1" vertex="1">
          <mxGeometry x="183.5" y="580" width="62" height="20" as="geometry"/>
        </mxCell>
        <mxCell id="jyvKhXXE0eLRTPu1VaxT-65" value="45" style="rounded=1;arcSize=9;fillColor=#F7F8F9;align=left;spacingLeft=5;strokeColor=#DEE1E6;html=1;strokeWidth=2;fontSize=12" parent="1" vertex="1">
          <mxGeometry x="264.5" y="580" width="62" height="20" as="geometry"/>
        </mxCell>
        <mxCell id="jyvKhXXE0eLRTPu1VaxT-66" value="45" style="rounded=1;arcSize=9;fillColor=#F7F8F9;align=left;spacingLeft=5;strokeColor=#DEE1E6;html=1;strokeWidth=2;fontSize=12" parent="1" vertex="1">
          <mxGeometry x="342" y="580" width="62" height="20" as="geometry"/>
        </mxCell>
        <mxCell id="jyvKhXXE0eLRTPu1VaxT-67" value="45" style="rounded=1;arcSize=9;fillColor=#F7F8F9;align=left;spacingLeft=5;strokeColor=#DEE1E6;html=1;strokeWidth=2;fontSize=12" parent="1" vertex="1">
          <mxGeometry x="423" y="580" width="62" height="20" as="geometry"/>
        </mxCell>
        <mxCell id="jyvKhXXE0eLRTPu1VaxT-68" value="副丝印-字体风格" style="fillColor=none;strokeColor=none;html=1;fontSize=11;fontStyle=0;align=left;fontColor=#596780;fontStyle=1;fontSize=11" parent="1" vertex="1">
          <mxGeometry x="64" y="626.5" width="93" height="20" as="geometry"/>
        </mxCell>
        <mxCell id="jyvKhXXE0eLRTPu1VaxT-69" value="字体风格中选择" style="rounded=1;fillColor=#F1F2F4;strokeColor=none;html=1;fontColor=#596780;align=left;fontSize=12;spacingLeft=10" parent="1" vertex="1">
          <mxGeometry x="183.5" y="620" width="142" height="30" as="geometry"/>
        </mxCell>
        <mxCell id="jyvKhXXE0eLRTPu1VaxT-70" value="" style="shape=triangle;direction=south;fillColor=#596780;strokeColor=none;html=1" parent="jyvKhXXE0eLRTPu1VaxT-69" vertex="1">
          <mxGeometry x="1" y="0.5" width="12" height="6" relative="1" as="geometry">
            <mxPoint x="-20" y="-3" as="offset"/>
          </mxGeometry>
        </mxCell>
        <mxCell id="jyvKhXXE0eLRTPu1VaxT-71" value="字体风格中选择" style="rounded=1;fillColor=#F1F2F4;strokeColor=none;html=1;fontColor=#596780;align=left;fontSize=12;spacingLeft=10" parent="1" vertex="1">
          <mxGeometry x="189.5" y="391.5" width="142" height="30" as="geometry"/>
        </mxCell>
        <mxCell id="jyvKhXXE0eLRTPu1VaxT-72" value="" style="shape=triangle;direction=south;fillColor=#596780;strokeColor=none;html=1" parent="jyvKhXXE0eLRTPu1VaxT-71" vertex="1">
          <mxGeometry x="1" y="0.5" width="12" height="6" relative="1" as="geometry">
            <mxPoint x="-20" y="-3" as="offset"/>
          </mxGeometry>
        </mxCell>
        <mxCell id="jyvKhXXE0eLRTPu1VaxT-73" value="宽" style="fillColor=none;strokeColor=none;html=1;fontSize=11;fontStyle=0;align=center;fontColor=#596780;fontStyle=1;fontSize=11" parent="1" vertex="1">
          <mxGeometry x="64" y="159.5" width="60" height="20" as="geometry"/>
        </mxCell>
        <mxCell id="jyvKhXXE0eLRTPu1VaxT-74" value="200" style="rounded=1;arcSize=9;fillColor=#F7F8F9;align=left;spacingLeft=5;strokeColor=#DEE1E6;html=1;strokeWidth=2;fontSize=12" parent="1" vertex="1">
          <mxGeometry x="144" y="154.5" width="100" height="30" as="geometry"/>
        </mxCell>
        <mxCell id="jyvKhXXE0eLRTPu1VaxT-75" value="高" style="fillColor=none;strokeColor=none;html=1;fontSize=11;fontStyle=0;align=center;fontColor=#596780;fontStyle=1;fontSize=11" parent="1" vertex="1">
          <mxGeometry x="324" y="159.5" width="60" height="20" as="geometry"/>
        </mxCell>
        <mxCell id="jyvKhXXE0eLRTPu1VaxT-76" value="100" style="rounded=1;arcSize=9;fillColor=#F7F8F9;align=left;spacingLeft=5;strokeColor=#DEE1E6;html=1;strokeWidth=2;fontSize=12" parent="1" vertex="1">
          <mxGeometry x="394" y="154.5" width="100" height="30" as="geometry"/>
        </mxCell>
        <mxCell id="jyvKhXXE0eLRTPu1VaxT-77" value="主丝印水平对齐" style="fillColor=none;strokeColor=none;html=1;fontSize=11;fontStyle=0;align=left;fontColor=#596780;fontStyle=1;fontSize=11" parent="1" vertex="1">
          <mxGeometry x="347" y="397" width="89" height="17" as="geometry"/>
        </mxCell>
        <mxCell id="jyvKhXXE0eLRTPu1VaxT-78" value="1" style="rounded=1;arcSize=9;fillColor=#F7F8F9;align=left;spacingLeft=5;strokeColor=#DEE1E6;html=1;strokeWidth=2;fontSize=12" parent="1" vertex="1">
          <mxGeometry x="447" y="396.5" width="62" height="20" as="geometry"/>
        </mxCell>
        <mxCell id="jyvKhXXE0eLRTPu1VaxT-80" value="副丝印水平偏移" style="fillColor=none;strokeColor=none;html=1;fontSize=11;fontStyle=0;align=left;fontColor=#596780;fontStyle=1;fontSize=11" parent="1" vertex="1">
          <mxGeometry x="350" y="627" width="89" height="17" as="geometry"/>
        </mxCell>
        <mxCell id="jyvKhXXE0eLRTPu1VaxT-81" value="-1" style="rounded=1;arcSize=9;fillColor=#F7F8F9;align=left;spacingLeft=5;strokeColor=#DEE1E6;html=1;strokeWidth=2;fontSize=12" parent="1" vertex="1">
          <mxGeometry x="450" y="626.5" width="62" height="20" as="geometry"/>
        </mxCell>
        <mxCell id="jyvKhXXE0eLRTPu1VaxT-82" value="主丝印可见" style="fillColor=none;strokeColor=none;html=1;fontSize=11;fontStyle=0;align=left;fontColor=#596780;fontStyle=1;fontSize=11" parent="1" vertex="1">
          <mxGeometry x="524" y="360" width="60" height="20" as="geometry"/>
        </mxCell>
        <mxCell id="jyvKhXXE0eLRTPu1VaxT-83" value="1" style="rounded=1;arcSize=9;fillColor=#F7F8F9;align=left;spacingLeft=5;strokeColor=#DEE1E6;html=1;strokeWidth=2;fontSize=12" parent="1" vertex="1">
          <mxGeometry x="604.5" y="360" width="62" height="20" as="geometry"/>
        </mxCell>
        <mxCell id="jyvKhXXE0eLRTPu1VaxT-84" value="中丝印可见" style="fillColor=none;strokeColor=none;html=1;fontSize=11;fontStyle=0;align=left;fontColor=#596780;fontStyle=1;fontSize=11" parent="1" vertex="1">
          <mxGeometry x="518.5" y="490" width="60" height="20" as="geometry"/>
        </mxCell>
        <mxCell id="jyvKhXXE0eLRTPu1VaxT-85" value="1" style="rounded=1;arcSize=9;fillColor=#F7F8F9;align=left;spacingLeft=5;strokeColor=#DEE1E6;html=1;strokeWidth=2;fontSize=12" parent="1" vertex="1">
          <mxGeometry x="599" y="490" width="62" height="20" as="geometry"/>
        </mxCell>
        <mxCell id="jyvKhXXE0eLRTPu1VaxT-86" value="副丝印可见" style="fillColor=none;strokeColor=none;html=1;fontSize=11;fontStyle=0;align=left;fontColor=#596780;fontStyle=1;fontSize=11" parent="1" vertex="1">
          <mxGeometry x="518.5" y="580" width="60" height="20" as="geometry"/>
        </mxCell>
        <mxCell id="jyvKhXXE0eLRTPu1VaxT-87" value="1" style="rounded=1;arcSize=9;fillColor=#F7F8F9;align=left;spacingLeft=5;strokeColor=#DEE1E6;html=1;strokeWidth=2;fontSize=12" parent="1" vertex="1">
          <mxGeometry x="599" y="580" width="62" height="20" as="geometry"/>
        </mxCell>
        <mxCell id="UC3aawzpcO9CxyrHWoxz-1" value="前景设置" style="rounded=1;fillColor=#0065FF;strokeColor=none;html=1;fontColor=#ffffff;align=center;verticalAlign=middle;whiteSpace=wrap;fontSize=18;fontStyle=1;arcSize=50" parent="1" vertex="1">
          <mxGeometry x="226.5" y="10" width="410" height="40" as="geometry"/>
        </mxCell>
        <mxCell id="UC3aawzpcO9CxyrHWoxz-4" value="新建" style="rounded=1;fillColor=#0057D8;align=center;strokeColor=none;html=1;fontColor=#ffffff;fontSize=12" parent="1" vertex="1">
          <mxGeometry x="170" y="59.5" width="80" height="33" as="geometry"/>
        </mxCell>
        <mxCell id="UC3aawzpcO9CxyrHWoxz-5" value="前景风格" style="rounded=1;align=center;fillColor=#F1F2F4;strokeColor=none;html=1;fontColor=#596780;fontSize=12" parent="1" vertex="1">
          <mxGeometry x="70" y="58.5" width="80" height="33" as="geometry"/>
        </mxCell>
        <mxCell id="UC3aawzpcO9CxyrHWoxz-6" value="主丝印水平偏移" style="fillColor=none;strokeColor=none;html=1;fontSize=11;fontStyle=0;align=left;fontColor=#596780;fontStyle=1;fontSize=11" parent="1" vertex="1">
          <mxGeometry x="92.5" y="440.5" width="89" height="17" as="geometry"/>
        </mxCell>
        <mxCell id="UC3aawzpcO9CxyrHWoxz-7" value="1" style="rounded=1;arcSize=9;fillColor=#F7F8F9;align=left;spacingLeft=5;strokeColor=#DEE1E6;html=1;strokeWidth=2;fontSize=12" parent="1" vertex="1">
          <mxGeometry x="192.5" y="440" width="62" height="20" as="geometry"/>
        </mxCell>
        <mxCell id="UC3aawzpcO9CxyrHWoxz-8" value="主丝印垂直偏移" style="fillColor=none;strokeColor=none;html=1;fontSize=11;fontStyle=0;align=left;fontColor=#596780;fontStyle=1;fontSize=11" parent="1" vertex="1">
          <mxGeometry x="280" y="438" width="89" height="17" as="geometry"/>
        </mxCell>
        <mxCell id="UC3aawzpcO9CxyrHWoxz-9" value="1" style="rounded=1;arcSize=9;fillColor=#F7F8F9;align=left;spacingLeft=5;strokeColor=#DEE1E6;html=1;strokeWidth=2;fontSize=12" parent="1" vertex="1">
          <mxGeometry x="380" y="437.5" width="62" height="20" as="geometry"/>
        </mxCell>
        <mxCell id="ypBzyG_Nf_OfasAwBX5j-1" value="ICON矩形" style="fillColor=none;strokeColor=none;html=1;fontSize=11;fontStyle=0;align=left;fontColor=#596780;fontStyle=1;fontSize=11" vertex="1" parent="1">
          <mxGeometry x="86" y="260" width="60" height="20" as="geometry"/>
        </mxCell>
        <mxCell id="ypBzyG_Nf_OfasAwBX5j-2" value="45" style="rounded=1;arcSize=9;fillColor=#F7F8F9;align=left;spacingLeft=5;strokeColor=#DEE1E6;html=1;strokeWidth=2;fontSize=12" vertex="1" parent="1">
          <mxGeometry x="186" y="261" width="62" height="20" as="geometry"/>
        </mxCell>
        <mxCell id="ypBzyG_Nf_OfasAwBX5j-3" value="45" style="rounded=1;arcSize=9;fillColor=#F7F8F9;align=left;spacingLeft=5;strokeColor=#DEE1E6;html=1;strokeWidth=2;fontSize=12" vertex="1" parent="1">
          <mxGeometry x="267" y="261" width="62" height="20" as="geometry"/>
        </mxCell>
        <mxCell id="ypBzyG_Nf_OfasAwBX5j-4" value="45" style="rounded=1;arcSize=9;fillColor=#F7F8F9;align=left;spacingLeft=5;strokeColor=#DEE1E6;html=1;strokeWidth=2;fontSize=12" vertex="1" parent="1">
          <mxGeometry x="344.5" y="261" width="62" height="20" as="geometry"/>
        </mxCell>
        <mxCell id="ypBzyG_Nf_OfasAwBX5j-5" value="45" style="rounded=1;arcSize=9;fillColor=#F7F8F9;align=left;spacingLeft=5;strokeColor=#DEE1E6;html=1;strokeWidth=2;fontSize=12" vertex="1" parent="1">
          <mxGeometry x="425.5" y="261" width="62" height="20" as="geometry"/>
        </mxCell>
      </root>
    </mxGraphModel>
  </diagram>
</mxfile>
